<svg width="25" height="25" viewBox="0 0 25 25" fill="none" xmlns="http://www.w3.org/2000/svg">
<path d="M22.9923 6.67749C22.2223 7.02749 21.3923 7.25749 20.5323 7.36749C21.4123 6.83749 22.0923 5.99749 22.4123 4.98749C21.5823 5.48749 20.6623 5.83749 19.6923 6.03749C18.9023 5.17749 17.7923 4.67749 16.5323 4.67749C14.1823 4.67749 12.2623 6.59749 12.2623 8.96749C12.2623 9.30749 12.3023 9.63749 12.3723 9.94749C8.81227 9.76749 5.64227 8.05749 3.53227 5.46749C3.16227 6.09749 2.95227 6.83749 2.95227 7.61749C2.95227 9.10749 3.70227 10.4275 4.86227 11.1775C4.15227 11.1775 3.49227 10.9775 2.91227 10.6775C2.91227 10.6775 2.91227 10.6775 2.91227 10.7075C2.91227 12.7875 4.39227 14.5275 6.35227 14.9175C5.99227 15.0175 5.61227 15.0675 5.22227 15.0675C4.95227 15.0675 4.68227 15.0375 4.42227 14.9875C4.96227 16.6775 6.53227 17.9375 8.42227 17.9675C6.96227 19.1275 5.11227 19.8075 3.09227 19.8075C2.75227 19.8075 2.41227 19.7875 2.07227 19.7475C3.97227 20.9675 6.23227 21.6775 8.65227 21.6775C16.5323 21.6775 20.8623 15.1375 20.8623 9.46749C20.8623 9.27749 20.8623 9.09749 20.8523 8.90749C21.6923 8.30749 22.4123 7.54749 22.9923 6.67749Z" fill="white"/>
</svg>
